<?xml version="1.0" standalone="no"?>
<!DOCTYPE svg PUBLIC "-//W3C//DTD SVG 20010904//EN"
 "http://www.w3.org/TR/2001/REC-SVG-20010904/DTD/svg10.dtd">
<svg version="1.0" xmlns="http://www.w3.org/2000/svg"
 width="276.000000pt" height="276.000000pt" viewBox="0 0 276.000000 276.000000"
 preserveAspectRatio="xMidYMid meet">
<metadata>
Created by potrace 1.11, written by Peter Selinger 2001-2013
</metadata>
<g transform="translate(0.000000,276.000000) scale(0.100000,-0.100000)"
fill="#000000" stroke="none">
<path d="M0 1380 l0 -1380 1380 0 1380 0 0 1380 0 1380 -1380 0 -1380 0 0
-1380z m1008 787 c23 -15 52 -46 64 -70 22 -41 23 -49 23 -347 0 -168 -4 -322
-8 -343 -10 -46 -60 -105 -107 -125 -19 -8 -81 -17 -137 -20 l-103 -5 0 -268
0 -269 -80 0 -80 0 0 741 0 740 193 -3 c192 -3 194 -3 235 -31z m1192 -322 l0
-95 -90 0 -90 0 0 -515 0 -515 -100 0 -100 0 0 515 0 515 -90 0 -90 0 0 95 0
95 280 0 280 0 0 -95z"/>
<path d="M739 1853 c0 -109 -1 -251 -2 -315 l-2 -118 92 0 c81 0 94 2 103 19
6 12 10 126 10 299 0 332 8 312 -118 312 l-82 0 -1 -197z"/>
</g>
</svg>
